<svg width="880" height="568" viewBox="0 0 880 568" fill="none" xmlns="http://www.w3.org/2000/svg">
<g filter="url(#filter0_d)">
<g clip-path="url(#clip0)">
<path d="M750.527 132.405C751.282 133.881 752.784 134.734 754.337 134.734C754.985 134.734 755.651 134.584 756.27 134.269C756.521 134.141 781.635 121.384 794.021 117.471C796.266 116.759 797.511 114.361 796.799 112.117C796.09 109.872 793.71 108.622 791.444 109.331C778.397 113.457 753.454 126.129 752.396 126.666C750.297 127.733 749.461 130.302 750.527 132.405Z" fill="#9113CC"/>
<path d="M754.337 83.5349C754.986 83.5349 755.651 83.3854 756.27 83.0699C756.522 82.9419 781.636 70.1845 794.022 66.272C796.266 65.5595 797.512 63.1616 796.799 60.9176C796.091 58.6731 793.71 57.4231 791.445 58.1316C778.397 62.2576 753.454 74.9295 752.396 75.467C750.297 76.5335 749.461 79.1019 750.527 81.2054C751.282 82.6814 752.784 83.5349 754.337 83.5349Z" fill="#9113CC"/>
<path d="M856.732 75.0015C854.373 75.0015 852.466 76.913 852.466 79.268V245.667C852.466 252.724 846.723 258.467 839.666 258.467H737.266V248.649C743.487 246.473 759.692 241.4 775.666 241.4C812.833 241.4 838.07 249.631 838.322 249.716C839.606 250.142 841.04 249.929 842.162 249.127C843.275 248.325 843.932 247.036 843.932 245.666V57.9351C843.932 55.9341 842.546 54.2017 840.591 53.7707C840.591 53.7707 837.246 53.0242 831.529 51.9742C829.22 51.5477 826.989 53.0837 826.562 55.3962C826.136 57.7171 827.667 59.9401 829.984 60.3666C832.165 60.7676 833.991 61.1216 835.399 61.4036V239.996C825.73 237.462 804.261 232.867 775.666 232.867C757.076 232.867 738.815 238.972 733.165 241.042C728.144 238.823 712.963 232.867 694.599 232.867C665.211 232.867 641.002 237.714 630.6 240.176V61.2371C639.12 59.1421 664.285 53.6682 694.599 53.6682C710.156 53.6682 723.497 58.5106 728.733 60.6996V228.6C728.733 230.136 729.56 231.557 730.896 232.312C732.231 233.072 733.878 233.05 735.196 232.257C735.619 232.005 777.893 206.755 815.413 194.25C817.158 193.665 818.332 192.04 818.332 190.201V15.2685C818.332 13.869 817.645 12.559 816.493 11.7615C815.349 10.9635 813.882 10.78 812.563 11.271C778.426 24.0749 743.884 45.5702 743.538 45.7837C741.541 47.0337 740.931 49.6662 742.181 51.6632C743.427 53.6602 746.059 54.2702 748.06 53.0202C748.376 52.8197 778.426 34.1233 809.798 21.5069V187.146C780.674 197.267 750.266 213.791 737.265 221.189V57.9351C737.265 56.3181 736.352 54.8417 734.906 54.1167C734.172 53.7542 716.688 45.1352 694.599 45.1352C656.046 45.1352 626.406 53.4767 625.16 53.8347C623.329 54.3552 622.066 56.0321 622.066 57.9351V245.667C622.066 247.003 622.698 248.266 623.76 249.072C624.511 249.64 625.416 249.934 626.333 249.934C626.726 249.934 627.118 249.879 627.502 249.768C627.797 249.687 657.301 241.401 694.599 241.401C710.198 241.401 723.527 246.256 728.733 248.436V258.467H626.333C619.276 258.467 613.533 252.724 613.533 245.667V79.2685C613.533 76.9135 611.622 75.002 609.267 75.002C606.912 75.002 605 76.9135 605 79.2685V245.667C605 257.43 614.57 267 626.334 267H839.666C851.429 267 860.999 257.431 860.999 245.667V79.2685C860.998 76.913 859.091 75.0015 856.732 75.0015Z" fill="#9113CC"/>
<path d="M750.527 106.805C751.282 108.281 752.784 109.134 754.337 109.134C754.985 109.134 755.651 108.985 756.27 108.669C756.521 108.541 781.635 95.7838 794.021 91.8713C796.266 91.1588 797.511 88.7608 796.799 86.5169C796.09 84.2724 793.71 83.0224 791.444 83.7309C778.397 87.8569 753.454 100.529 752.396 101.066C750.297 102.133 749.461 104.702 750.527 106.805Z" fill="#9113CC"/>
<path d="M750.527 158.004C751.282 159.481 752.784 160.334 754.337 160.334C754.985 160.334 755.651 160.184 756.27 159.869C756.521 159.741 781.635 146.983 794.021 143.071C796.266 142.358 797.511 139.96 796.799 137.716C796.09 135.472 793.71 134.222 791.444 134.93C778.397 139.056 753.454 151.728 752.396 152.266C750.297 153.332 749.461 155.901 750.527 158.004Z" fill="#9113CC"/>
<path d="M708.373 90.1823C682.027 83.9999 652.087 91.8763 650.829 92.2133C648.555 92.8233 647.202 95.1613 647.812 97.4398C648.324 99.3468 650.048 100.601 651.93 100.601C652.297 100.601 652.668 100.554 653.039 100.456C653.325 100.375 682.151 92.7933 706.428 98.4893C708.71 99.0228 711.019 97.6018 711.556 95.3063C712.093 93.0153 710.668 90.7198 708.373 90.1823Z" fill="#9113CC"/>
<path d="M708.373 115.782C682.027 109.604 652.087 117.476 650.829 117.813C648.555 118.423 647.202 120.762 647.812 123.04C648.324 124.947 650.048 126.201 651.93 126.201C652.297 126.201 652.668 126.154 653.039 126.056C653.325 125.975 682.151 118.393 706.428 124.089C708.71 124.623 711.019 123.202 711.556 120.906C712.093 118.615 710.668 116.32 708.373 115.782Z" fill="#9113CC"/>
<path d="M750.527 183.604C751.282 185.081 752.784 185.934 754.337 185.934C754.985 185.934 755.651 185.784 756.27 185.469C756.521 185.341 781.635 172.583 794.021 168.671C796.266 167.958 797.511 165.56 796.799 163.316C796.09 161.072 793.71 159.822 791.444 160.53C778.397 164.656 753.454 177.328 752.396 177.866C750.297 178.932 749.461 181.501 750.527 183.604Z" fill="#9113CC"/>
<path d="M708.373 141.382C682.027 135.204 652.087 143.071 650.829 143.413C648.555 144.023 647.202 146.361 647.812 148.639C648.324 150.546 650.048 151.805 651.93 151.805C652.297 151.805 652.668 151.754 653.039 151.656C653.325 151.575 682.151 143.993 706.428 149.689C708.71 150.222 711.019 148.801 711.556 146.506C712.093 144.215 710.668 141.919 708.373 141.382Z" fill="#9113CC"/>
<path d="M708.373 192.582C682.027 186.399 652.087 194.276 650.829 194.613C648.555 195.223 647.202 197.561 647.812 199.839C648.324 201.746 650.048 203.005 651.93 203.005C652.297 203.005 652.668 202.954 653.039 202.855C653.325 202.774 682.151 195.193 706.428 200.888C708.71 201.417 711.019 200.001 711.556 197.706C712.093 195.415 710.668 193.119 708.373 192.582Z" fill="#9113CC"/>
<path d="M708.373 166.982C682.027 160.799 652.087 168.671 650.829 169.013C648.555 169.623 647.202 171.961 647.812 174.239C648.324 176.146 650.048 177.405 651.93 177.405C652.297 177.405 652.668 177.354 653.039 177.256C653.325 177.175 682.151 169.593 706.428 175.289C708.71 175.822 711.019 174.401 711.556 172.106C712.093 169.815 710.668 167.519 708.373 166.982Z" fill="#9113CC"/>
</g>
<path d="M152 238.402L150.5 237.536L149 238.402L18.6632 313.652L17.1632 314.518V316.25V466.75V468.482L18.6632 469.348L149 544.598L150.5 545.464L152 544.598L282.337 469.348L283.837 468.482V466.75V316.25V314.518L282.337 313.652L152 238.402Z" stroke="#9113CC" stroke-width="6"/>
<line x1="149.36" y1="517.16" x2="257.641" y2="454.644" stroke="#9113CC" stroke-width="6"/>
<line x1="282.5" y1="313.918" x2="390.781" y2="251.402" stroke="#9113CC" stroke-width="6"/>
<line x1="495.781" y1="314.114" x2="387.5" y2="251.598" stroke="#9113CC" stroke-width="6"/>
<line x1="492.5" y1="313.918" x2="579.103" y2="263.918" stroke="#9113CC" stroke-width="6"/>
<line x1="40" y1="457.032" x2="40" y2="332" stroke="#9113CC" stroke-width="6"/>
<line x1="257.781" y1="325.114" x2="149.5" y2="262.598" stroke="#9113CC" stroke-width="6"/>
<path d="M499.5 429.5C495.5 428.833 489.194 426 489.194 423C489.194 411.5 508.194 417.5 508.194 407.5C508.194 398.28 489.194 404.5 489.194 391.5C489.194 378.5 508.194 388.5 508.194 375C508.194 361.5 489.194 369.5 489.194 356.5C489.194 343.5 508.194 353 508.194 340C508.194 327 489.194 335.5 489.194 323C489.194 319.06 494.527 314.167 496.194 312" stroke="#9113CC" stroke-width="6"/>
</g>
<path d="M67.2 131.6V162.3C67.2 163.367 67 164.1 66.6 164.5C66.2667 164.833 65.5667 165 64.5 165H59.2V104.5C59.2 101.033 59.9 98.6 61.3 97.2C62.7667 95.7333 65.2333 95 68.7 95H83.1C86.5667 95 89 95.7333 90.4 97.2C91.8667 98.6 92.6 101.033 92.6 104.5V162.3C92.6 163.367 92.4 164.1 92 164.5C91.6667 164.833 90.9667 165 89.9 165H84.6V106.5C84.6 104.567 84.3333 103.167 83.8 102.3C83.3333 101.433 82.2333 100.933 80.5 100.8H71.3C69.5 100.933 68.3667 101.433 67.9 102.3C67.4333 103.167 67.2 104.567 67.2 106.5V125.8H80.6V128.9C80.6 129.967 80.4333 130.7 80.1 131.1C79.8333 131.433 79.1667 131.6 78.1 131.6H67.2ZM118.256 95V162.3C118.256 163.367 118.056 164.1 117.656 164.5C117.323 164.833 116.623 165 115.556 165H110.256V97.7C110.256 96.6333 110.423 95.9333 110.756 95.6C111.156 95.2 111.89 95 112.956 95H118.256ZM162.127 159.2V162.3C162.127 163.367 161.96 164.1 161.627 164.5C161.36 164.833 160.693 165 159.627 165H144.527C141.06 165 138.593 164.3 137.127 162.9C135.727 161.433 135.027 158.967 135.027 155.5V123.7C135.027 120.233 135.727 117.8 137.127 116.4C138.593 114.933 141.06 114.2 144.527 114.2H155.527C158.993 114.2 161.427 114.933 162.827 116.4C164.293 117.8 165.027 120.233 165.027 123.7V134.9C165.027 138.367 164.293 140.833 162.827 142.3C161.427 143.7 158.993 144.4 155.527 144.4H149.527C148.46 144.4 147.76 144.233 147.427 143.9C147.16 143.5 147.027 142.767 147.027 141.7V138.6H152.827C154.893 138.6 156.193 138.167 156.727 137.3C157.26 136.433 157.527 134.967 157.527 132.9V125.2C157.527 123.133 157.193 121.767 156.527 121.1C155.86 120.367 154.493 120 152.427 120H148.127C145.927 120 144.527 120.4 143.927 121.2C143.327 121.933 143.027 123.433 143.027 125.7V153.5C143.027 155.567 143.293 157.033 143.827 157.9C144.36 158.767 145.66 159.2 147.727 159.2H162.127ZM203.535 114.2C207.002 114.2 209.435 114.933 210.835 116.4C212.302 117.8 213.035 120.233 213.035 123.7V155.5C213.035 158.967 212.302 161.433 210.835 162.9C209.435 164.3 207.002 165 203.535 165H194.035C192.102 165 190.702 164.533 189.835 163.6C189.035 162.6 188.435 161.133 188.035 159.2V182.4C188.035 183.467 187.835 184.167 187.435 184.5C187.102 184.9 186.402 185.1 185.335 185.1H180.035V116.9C180.035 115.833 180.202 115.133 180.535 114.8C180.935 114.4 181.668 114.2 182.735 114.2H188.035V159.2H200.335C202.402 159.2 203.702 158.767 204.235 157.9C204.768 157.033 205.035 155.567 205.035 153.5V125.7C205.035 123.633 204.768 122.167 204.235 121.3C203.702 120.433 202.402 120 200.335 120H192.035V116.9C192.035 115.833 192.168 115.133 192.435 114.8C192.768 114.4 193.468 114.2 194.535 114.2H203.535ZM262.436 162.3C262.436 163.367 262.236 164.1 261.836 164.5C261.503 164.833 260.803 165 259.736 165H254.436V125.7C254.436 123.633 254.169 122.167 253.636 121.3C253.103 120.433 251.803 120 249.736 120H237.436V162.3C237.436 163.367 237.236 164.1 236.836 164.5C236.503 164.833 235.803 165 234.736 165H229.436V97.7C229.436 96.6333 229.603 95.9333 229.936 95.6C230.336 95.2 231.069 95 232.136 95H237.436V120C237.836 118.067 238.436 116.633 239.236 115.7C240.103 114.7 241.503 114.2 243.436 114.2H252.936C256.403 114.2 258.836 114.933 260.236 116.4C261.703 117.8 262.436 120.233 262.436 123.7V162.3ZM301.432 125.7C301.432 123.633 301.165 122.167 300.632 121.3C300.099 120.433 298.799 120 296.732 120H279.432C279.832 118.067 280.432 116.633 281.232 115.7C282.099 114.7 283.499 114.2 285.432 114.2H299.932C303.399 114.2 305.832 114.933 307.232 116.4C308.699 117.8 309.432 120.233 309.432 123.7V165H304.132C303.065 165 302.332 164.833 301.932 164.5C301.599 164.1 301.432 163.367 301.432 162.3V125.7ZM286.932 165C283.465 165 280.999 164.3 279.532 162.9C278.132 161.433 277.432 158.967 277.432 155.5V144.5C277.432 141.033 278.132 138.6 279.532 137.2C280.999 135.733 283.465 135 286.932 135H295.432C297.365 135 298.732 135.5 299.532 136.5C300.399 137.433 301.032 138.867 301.432 140.8H290.132C288.065 140.8 286.765 141.233 286.232 142.1C285.699 142.967 285.432 144.433 285.432 146.5V154.3C285.432 156.367 285.799 157.7 286.532 158.3C287.332 158.9 288.765 159.2 290.832 159.2H297.432V162.3C297.432 163.367 297.265 164.1 296.932 164.5C296.665 164.833 295.999 165 294.932 165H286.932ZM358.287 162.3C358.287 163.367 358.087 164.1 357.687 164.5C357.353 164.833 356.653 165 355.587 165H350.287V125.7C350.287 123.633 350.02 122.167 349.487 121.3C348.953 120.433 347.653 120 345.587 120H333.887V162.3C333.887 163.367 333.687 164.1 333.287 164.5C332.953 164.833 332.253 165 331.187 165H325.887V116.9C325.887 115.833 326.053 115.133 326.387 114.8C326.787 114.4 327.52 114.2 328.587 114.2H333.887V120C334.287 118.067 334.887 116.633 335.687 115.7C336.553 114.7 337.953 114.2 339.887 114.2H348.787C352.253 114.2 354.687 114.933 356.087 116.4C357.553 117.8 358.287 120.233 358.287 123.7V162.3ZM382.687 162.3C382.687 163.367 382.487 164.1 382.087 164.5C381.753 164.833 381.053 165 379.987 165H374.687V125.7C374.687 123.633 374.42 122.167 373.887 121.3C373.353 120.433 372.053 120 369.987 120H357.987C358.387 118.067 358.987 116.633 359.787 115.7C360.653 114.7 362.053 114.2 363.987 114.2H373.187C376.653 114.2 379.087 114.933 380.487 116.4C381.953 117.8 382.687 120.233 382.687 123.7V162.3ZM398.713 103.5C398.713 102.433 398.88 101.733 399.213 101.4C399.613 101 400.347 100.8 401.413 100.8H407.513V106.1C407.513 107.167 407.313 107.9 406.913 108.3C406.58 108.633 405.88 108.8 404.813 108.8H398.713V103.5ZM407.113 114.2V162.3C407.113 163.367 406.913 164.1 406.513 164.5C406.18 164.833 405.48 165 404.413 165H399.113V116.9C399.113 115.833 399.28 115.133 399.613 114.8C400.013 114.4 400.747 114.2 401.813 114.2H407.113ZM447.109 114.2C450.576 114.2 453.009 114.933 454.409 116.4C455.876 117.8 456.609 120.233 456.609 123.7V162.3C456.609 163.367 456.409 164.1 456.009 164.5C455.676 164.833 454.976 165 453.909 165H448.609V125.7C448.609 123.633 448.343 122.167 447.809 121.3C447.276 120.433 445.976 120 443.909 120H431.609V162.3C431.609 163.367 431.409 164.1 431.009 164.5C430.676 164.833 429.976 165 428.909 165H423.609V116.9C423.609 115.833 423.776 115.133 424.109 114.8C424.509 114.4 425.243 114.2 426.309 114.2H431.609V120C432.009 118.067 432.609 116.633 433.409 115.7C434.276 114.7 435.676 114.2 437.609 114.2H447.109ZM499.908 159.2V162.3C499.908 163.367 499.741 164.1 499.408 164.5C499.141 164.833 498.474 165 497.408 165H482.308C478.841 165 476.374 164.3 474.908 162.9C473.508 161.433 472.808 158.967 472.808 155.5V123.7C472.808 120.233 473.508 117.8 474.908 116.4C476.374 114.933 478.841 114.2 482.308 114.2H493.308C496.774 114.2 499.208 114.933 500.608 116.4C502.074 117.8 502.808 120.233 502.808 123.7V134.9C502.808 138.367 502.074 140.833 500.608 142.3C499.208 143.7 496.774 144.4 493.308 144.4H487.308C486.241 144.4 485.541 144.233 485.208 143.9C484.941 143.5 484.808 142.767 484.808 141.7V138.6H490.608C492.674 138.6 493.974 138.167 494.508 137.3C495.041 136.433 495.308 134.967 495.308 132.9V125.2C495.308 123.133 494.974 121.767 494.308 121.1C493.641 120.367 492.274 120 490.208 120H485.908C483.708 120 482.308 120.4 481.708 121.2C481.108 121.933 480.808 123.433 480.808 125.7V153.5C480.808 155.567 481.074 157.033 481.608 157.9C482.141 158.767 483.441 159.2 485.508 159.2H499.908Z" fill="#5A0085"/>
<defs>
<filter id="filter0_d" x="3.16321" y="0" width="876.837" height="567.928" filterUnits="userSpaceOnUse" color-interpolation-filters="sRGB">
<feFlood flood-opacity="0" result="BackgroundImageFix"/>
<feColorMatrix in="SourceAlpha" type="matrix" values="0 0 0 0 0 0 0 0 0 0 0 0 0 0 0 0 0 0 127 0"/>
<feOffset dx="4" dy="4"/>
<feGaussianBlur stdDeviation="7.5"/>
<feColorMatrix type="matrix" values="0 0 0 0 0.372667 0 0 0 0 0.0223958 0 0 0 0 0.5375 0 0 0 0.25 0"/>
<feBlend mode="normal" in2="BackgroundImageFix" result="effect1_dropShadow"/>
<feBlend mode="normal" in="SourceGraphic" in2="effect1_dropShadow" result="shape"/>
</filter>
<clipPath id="clip0">
<rect width="256" height="256" fill="white" transform="translate(605 11)"/>
</clipPath>
</defs>
</svg>
